<svg width="387" height="600" viewBox="0 0 387 600" fill="none" xmlns="http://www.w3.org/2000/svg">
<rect opacity="0.01" width="420" height="600" fill="white"/>
<path d="M208.8 215.723C208.685 215.924 208.609 216.145 208.576 216.375C208.071 219.598 207.068 225.418 206.442 228.598C205.251 234.563 204.171 242.132 200.82 247.215C199.834 248.861 198.437 250.223 196.765 251.166C194.713 252.04 192.371 251.907 190.431 250.806C188.648 249.52 188.159 247.12 187.817 244.952C186.428 236.32 185.485 228.255 184.259 219.82C184.251 219.795 183.839 216.795 183.565 214.78C183.542 214.59 183.487 214.404 183.402 214.232C191.442 210.923 194.511 198.203 194.631 187.172C196.338 188.048 198.203 188.573 200.117 188.715C201.298 188.834 202.486 188.888 203.674 188.878C202.105 196.763 201.342 206.629 205.602 212.603C206.428 213.864 207.52 214.928 208.8 215.723V215.723Z" fill="white"/>
<path fill-rule="evenodd" clip-rule="evenodd" d="M190.181 251.155C191.318 251.859 192.637 252.211 193.973 252.168C195.002 252.189 196.022 251.978 196.958 251.55C198.704 250.583 200.161 249.169 201.178 247.452C204.134 242.968 205.335 236.672 206.393 231.116L206.427 230.938C206.574 230.167 206.718 229.413 206.864 228.682C207.495 225.471 208.497 219.655 209.002 216.436C209.026 216.26 209.084 216.09 209.173 215.936L209.378 215.577L209.027 215.36C207.794 214.596 206.745 213.57 205.952 212.355C202.574 207.619 201.949 199.748 204.095 188.962L204.199 188.441L203.668 188.45C202.495 188.461 201.323 188.407 200.157 188.289C198.3 188.152 196.49 187.644 194.834 186.795L194.21 186.461L194.203 187.168C194.086 197.928 191.145 210.584 183.24 213.836L182.814 214.012L183.02 214.424C183.083 214.554 183.124 214.695 183.142 214.839C183.776 219.508 183.836 219.888 183.837 219.888V219.886C184.307 223.126 184.736 226.312 185.165 229.497L185.172 229.544C185.845 234.546 186.541 239.719 187.394 245.02C187.767 247.376 188.29 249.79 190.181 251.155ZM183.991 214.725C183.98 214.638 183.963 214.551 183.942 214.466C191.784 210.897 194.814 198.572 195.049 187.86C196.639 188.571 198.34 189.005 200.077 189.142C201.208 189.249 202.22 189.304 203.154 189.309C201.082 200.074 201.789 207.993 205.245 212.84C206.035 214.047 207.06 215.082 208.258 215.885C208.21 216.022 208.175 216.165 208.154 216.309C207.652 219.514 206.652 225.315 206.023 228.515C205.88 229.235 205.737 229.979 205.592 230.739L205.55 230.956C204.508 236.432 203.325 242.64 200.463 246.979C199.526 248.57 198.184 249.883 196.573 250.784C194.663 251.58 192.493 251.46 190.682 250.459C189.058 249.288 188.585 247.064 188.24 244.885C187.39 239.594 186.693 234.427 186.021 229.429L185.988 229.182C185.567 226.06 185.146 222.936 184.682 219.745C184.658 219.602 184.273 216.795 183.991 214.725Z" fill="black"/>
<path d="M208.534 574.814C207.857 578.037 203.666 578.8 201.129 580.891C198.154 583.334 198.232 584.8 197.623 589.754C197.272 592.574 197.589 596.122 195.034 597.374C193.346 598.291 188.572 598.239 187.106 597.957C185.545 597.838 184.352 596.513 184.397 594.948C184.321 593.126 185.164 591.387 186.643 590.32C189.515 588.288 189.506 585.134 189.497 581.997C189.468 580.875 189.508 579.753 189.617 578.637C190.535 571.214 192.515 567.297 192.823 560.885C193.337 553.162 193.777 545.477 194.143 537.828L205.843 538.025C204.412 546.391 203.075 554.525 201.832 562.3C201.757 562.809 201.786 563.328 201.917 563.825C202.423 565.84 204.369 567.605 205.706 568.882C207.36 570.468 209.015 572.577 208.534 574.814Z" fill="white"/>
<path fill-rule="evenodd" clip-rule="evenodd" d="M187.024 598.376C187.964 598.516 188.914 598.579 189.864 598.564C191.813 598.564 194.114 598.359 195.222 597.756C197.507 596.637 197.714 593.891 197.897 591.468L197.899 591.44C197.941 590.882 197.982 590.33 198.048 589.804L198.191 588.609L198.192 588.608C198.669 584.565 198.814 583.345 201.402 581.22C202.298 580.54 203.258 579.949 204.268 579.456C206.331 578.362 208.464 577.23 208.953 574.901C209.373 572.945 208.407 570.875 206.002 568.571L205.783 568.362C204.516 567.156 202.781 565.505 202.332 563.716C202.215 563.275 202.189 562.816 202.255 562.365C203.62 553.828 204.932 545.889 206.266 538.095L206.349 537.603L193.734 537.391L193.715 537.805C193.342 545.554 192.898 553.309 192.396 560.862C192.19 563.949 191.675 567.007 190.861 569.991C190.131 572.818 189.574 575.688 189.192 578.584C189.079 579.717 189.038 580.857 189.068 581.996C189.078 585.117 189.086 588.064 186.395 589.968C184.799 591.121 183.888 592.999 183.97 594.966C183.928 596.731 185.266 598.224 187.024 598.376ZM193.251 560.912C193.745 553.495 194.182 545.877 194.55 538.261L205.337 538.444C204.032 546.083 202.745 553.87 201.407 562.234C201.326 562.799 201.358 563.375 201.501 563.928C202.01 565.954 203.848 567.704 205.191 568.982L205.192 568.983L205.409 569.19C207.582 571.272 208.467 573.082 208.115 574.722V574.724C207.708 576.661 205.842 577.651 203.867 578.699C202.805 579.218 201.796 579.84 200.857 580.557C198.003 582.902 197.822 584.428 197.34 588.506L197.34 588.508L197.198 589.699C197.129 590.247 197.086 590.822 197.042 591.403C196.869 593.704 196.689 596.083 194.83 596.995C193.277 597.838 188.61 597.807 187.188 597.535C185.824 597.45 184.776 596.293 184.826 594.928C184.755 593.251 185.531 591.651 186.89 590.667C189.944 588.507 189.935 585.197 189.926 581.993L189.926 581.991C189.896 580.889 189.935 579.785 190.043 578.688C190.421 575.824 190.972 572.987 191.694 570.191C192.522 567.158 193.044 564.049 193.251 560.912Z" fill="black"/>
<path d="M195.18 470.975C195.128 471.592 194.854 473.152 193.834 473.718C193.028 474.155 191.091 474.395 190.508 471.592C189.848 468.447 187.971 463.869 186.925 460.827C186.668 460.089 186.291 459.189 185.837 458.212C184.286 454.876 182.447 451.681 180.343 448.664C177.865 445.887 157.954 435.515 154.062 433.432L159.78 422.727C166.98 428.409 174.66 434.401 182.486 441.404C183.137 441.962 183.939 442.314 184.791 442.415C187.234 442.827 190.844 441.577 192.876 442.897C197.136 445.64 193.311 452.169 193.148 454.809C192.831 459.909 195.608 465.867 195.18 470.975Z" fill="white"/>
<path fill-rule="evenodd" clip-rule="evenodd" d="M191.751 474.193C192.068 474.339 192.414 474.414 192.763 474.412C193.209 474.411 193.648 474.3 194.042 474.091C195.346 473.367 195.574 471.396 195.607 471.009C195.831 468.345 195.202 465.448 194.593 462.646L194.591 462.637C193.91 460.092 193.569 457.468 193.576 454.833C193.706 453.931 193.926 453.044 194.232 452.185L194.232 452.185C195.198 449.04 196.521 444.732 193.109 442.536C191.751 441.654 189.845 441.809 188.002 441.959L187.99 441.96C186.953 442.091 185.905 442.102 184.865 441.991C184.092 441.904 183.362 441.587 182.771 441.081C175.514 434.588 168.466 429.029 161.649 423.653L161.638 423.644L159.643 422.07L153.482 433.606L153.86 433.807C154.283 434.034 154.895 434.358 155.652 434.759L155.681 434.775C161.778 438.006 177.869 446.532 180 448.92C182.087 451.913 183.91 455.082 185.449 458.391C185.903 459.369 186.274 460.258 186.52 460.963C186.801 461.783 187.144 462.714 187.505 463.697L187.544 463.802C188.56 466.37 189.411 469 190.089 471.677C190.202 472.736 190.822 473.674 191.751 474.193ZM156.053 434.002C155.499 433.709 155.023 433.456 154.643 433.253L159.916 423.378L161.107 424.317L161.135 424.339C167.936 429.703 174.969 435.249 182.192 441.713C182.902 442.333 183.784 442.725 184.72 442.836C185.831 442.96 186.952 442.953 188.06 442.814C189.766 442.674 191.528 442.53 192.644 443.256C195.511 445.102 194.347 448.889 193.412 451.933C193.084 452.856 192.852 453.81 192.721 454.781C192.705 457.494 193.052 460.198 193.753 462.82L193.754 462.825C194.35 465.566 194.966 468.4 194.753 470.937C194.737 471.127 194.569 472.818 193.63 473.339C193.161 473.592 192.603 473.62 192.112 473.415C191.436 473.001 190.997 472.292 190.928 471.502C190.242 468.784 189.38 466.112 188.348 463.505C187.974 462.489 187.621 461.528 187.33 460.683C187.074 459.949 186.693 459.032 186.225 458.029C184.655 454.656 182.794 451.426 180.662 448.376C178.66 446.131 166.459 439.515 156.053 434.002Z" fill="black"/>
<path d="M189.42 209.006C191.398 211.143 194.643 211.908 197.462 211.972C199.624 212.021 202.584 211.742 204.106 209.983C204.466 209.568 203.862 208.959 203.5 209.377C202.132 210.958 199.397 211.158 197.462 211.115C194.891 211.056 191.833 210.352 190.027 208.4C189.651 207.994 189.046 208.601 189.42 209.006Z" fill="black"/>
<path d="M128.935 63.8607C120.935 64.3612 112.981 62.3131 106.218 58.0105C101.693 55.1154 97.7654 51.24 92.8635 49.0431C86.8481 46.3473 79.7882 46.4724 73.5596 48.6302C67.2437 50.7277 61.643 54.555 57.394 59.677C55.2466 62.1499 50.9465 68.9745 52.736 72.9722L72.9237 67.009C74.092 66.5602 75.3517 66.4014 76.5949 66.5461C77.7832 66.8726 78.8572 67.5233 79.6968 68.4254C85.3261 73.8478 87.896 81.7112 86.5553 89.4115C86.2084 91.2932 85.5578 93.2384 84.0896 94.4654C83.1228 95.1791 82.0368 95.7154 80.8823 96.049L61.5098 102.904C61.9671 104.129 62.7347 105.215 63.7374 106.054C73.7282 113.253 91.7951 114.482 101.905 105.697C105.131 102.895 108.058 99.7749 111.226 96.9078C114.394 94.0407 118.123 91.5258 122.359 90.9616L275.378 84.2479C283.369 83.6114 291.356 85.5238 298.192 89.7107C302.765 92.5283 306.758 96.3364 311.697 98.4495C317.757 101.043 324.814 100.797 331.005 98.5338C337.284 96.3292 342.819 92.4072 346.98 87.2136C349.085 84.7046 353.269 77.8077 351.411 73.8411L331.328 80.1469C330.167 80.6155 328.911 80.7958 327.665 80.6722C326.472 80.366 325.387 79.7337 324.532 78.846C318.811 73.5202 316.108 65.7016 317.317 57.9797C317.632 56.0923 318.249 54.1364 319.697 52.8846C320.651 52.1545 321.728 51.5998 322.876 51.2466L342.129 44.0625C341.651 42.8456 340.865 41.7737 339.849 40.9517C329.737 33.9238 311.652 33.0023 301.692 41.9578C298.515 44.8147 295.641 47.9837 292.522 50.9044C289.404 53.825 285.718 56.4029 281.493 57.0391L128.935 63.8607Z" fill="white"/>
<path fill-rule="evenodd" clip-rule="evenodd" d="M63.4881 106.404C68.6192 110.102 76.0162 112.311 83.4141 112.31C90.2788 112.31 97.1435 110.406 102.188 106.024C103.986 104.461 105.717 102.776 107.391 101.147L107.454 101.086C108.772 99.8035 110.132 98.4798 111.516 97.2286C115.339 93.767 118.905 91.8573 122.378 91.3927L275.414 84.6783C283.314 84.0432 291.212 85.9342 297.968 90.0785C299.651 91.1153 301.287 92.3115 302.871 93.4687L302.885 93.4795C305.555 95.5896 308.454 97.39 311.53 98.8462C317.349 101.337 324.503 101.371 331.154 98.9396C337.504 96.7114 343.102 92.745 347.31 87.492C349.606 84.7553 353.725 77.7734 351.8 73.6622L351.641 73.3228L331.201 79.7409C330.106 80.184 328.921 80.3598 327.744 80.2536C326.63 79.9588 325.619 79.3634 324.821 78.5326C319.222 73.2951 316.572 65.63 317.741 58.0528C318.127 55.7359 318.838 54.1974 319.978 53.2113C320.895 52.516 321.927 51.9877 323.027 51.6506L342.612 44.3431L342.553 43.9941C342.055 42.662 341.205 41.49 340.094 40.6028C330.083 33.6443 311.732 32.3582 301.407 41.6424C299.633 43.237 297.929 44.9525 296.282 46.6116L296.261 46.6328C294.954 47.9483 293.603 49.308 292.23 50.5947C288.465 54.1208 284.932 56.0908 281.474 56.614L128.917 63.4355L128.909 63.4359C120.999 63.9341 113.135 61.9091 106.45 57.6523C104.781 56.5851 103.162 55.3588 101.596 54.1723L101.591 54.1681C98.958 52.0129 96.0892 50.1634 93.0394 48.6552C87.2629 46.0654 80.1128 45.9097 73.4197 48.2279C67.032 50.3479 61.3676 54.2183 57.0712 59.3988C54.7283 62.0962 50.4903 69.0065 52.346 73.1499L52.4992 73.4923L73.0464 67.4232C74.1487 66.9986 75.3365 66.843 76.511 66.9696C77.6194 67.2829 78.62 67.8956 79.403 68.7403C84.9123 74.0717 87.4321 81.7804 86.1354 89.3365C85.7085 91.6472 84.9719 93.1735 83.8159 94.1395C82.8873 94.8195 81.8459 95.3303 80.7397 95.6483L61.0347 102.622L61.0874 102.972C61.5625 104.312 62.3922 105.498 63.4881 106.404ZM63.9886 105.709C63.1739 105.007 62.515 104.142 62.0542 103.17L81.026 96.456C82.2286 96.1055 83.3592 95.5439 84.365 94.7974C85.6825 93.6958 86.5129 92.0105 86.9783 89.4922C88.3243 81.6505 85.7095 73.6503 79.9922 68.1172C79.0956 67.1581 77.9482 66.4694 76.68 66.1292C75.3687 65.971 74.0386 66.133 72.8036 66.6013L52.9922 72.4527C51.7065 68.6709 55.6465 62.3469 57.7191 59.9609C61.9185 54.8953 67.456 51.1107 73.701 49.0382C80.1889 46.7907 87.1106 46.9372 92.6895 49.4371C95.6789 50.9209 98.4913 52.7372 101.073 54.8515L101.108 54.878C102.679 56.0672 104.301 57.2958 105.988 58.3747C112.826 62.7245 120.867 64.796 128.956 64.2918L281.557 57.4661C285.238 56.9119 288.92 54.8687 292.816 51.22C294.194 49.9289 295.545 48.5698 296.852 47.2542L296.89 47.2155C298.529 45.5648 300.224 43.8581 301.98 42.2794C310.026 35.0439 327.456 32.8638 339.605 41.3067C340.432 41.9949 341.106 42.8482 341.583 43.812L322.728 50.8479C321.531 51.2192 320.41 51.7999 319.417 52.563C318.136 53.6717 317.31 55.4216 316.895 57.9122C315.683 65.7757 318.433 73.7303 324.244 79.1659C325.157 80.1087 326.315 80.7774 327.589 81.0965C328.903 81.2316 330.23 81.0471 331.457 80.5587L351.166 74.3704C352.515 78.1296 348.684 84.5205 346.653 86.9412C342.54 92.0773 337.068 95.9555 330.859 98.1343C324.41 100.492 317.489 100.464 311.866 98.0586C308.852 96.6256 306.009 94.8575 303.391 92.7876C301.791 91.617 300.135 90.4066 298.418 89.3486C291.51 85.1152 283.437 83.1806 275.361 83.8228L122.303 90.5397C118.614 91.0311 114.897 93.0111 110.94 96.5933C109.524 97.8748 108.136 99.2258 106.793 100.532L106.775 100.55C105.115 102.165 103.399 103.835 101.625 105.377C93.4563 112.475 75.9903 114.357 63.9886 105.709Z" fill="black"/>
<path fill-rule="evenodd" clip-rule="evenodd" d="M122.237 77.3988C122.333 81.2452 125.477 84.3139 129.325 84.3163C129.445 84.3163 129.567 84.313 129.688 84.3071L278.181 76.7904C282.094 76.592 285.106 73.2588 284.907 69.3454C284.709 65.432 281.376 62.4203 277.462 62.6186L128.97 70.1354C125.127 70.3303 122.14 73.5524 122.237 77.3988ZM277.506 63.4749C277.613 63.4694 277.719 63.4666 277.825 63.4666C281.208 63.4681 283.973 66.1661 284.058 69.5481C284.143 72.9301 281.516 75.7632 278.137 75.9341L129.645 83.4508C126.204 83.6251 123.274 80.9773 123.1 77.5368C122.925 74.0963 125.573 71.166 129.014 70.9917L277.506 63.4749Z" fill="black"/>
<path d="M216.718 98.5809C214.479 95.8345 211.715 93.562 208.588 91.8963C207.227 91.1989 206.189 90.8341 204.539 89.942C203.395 89.3728 202.422 88.5083 201.723 87.4377L204.804 87.3025C205.355 87.7177 205.954 88.065 206.588 88.3367C207 88.5129 207.381 88.0757 207.084 87.7399C204.693 85.0368 199.35 80.672 196.631 77.7201C196.408 77.4788 195.347 76.252 196.119 75.6394C196.651 75.2169 197.281 75.7954 197.426 75.9338C199.222 77.6468 200.928 78.8516 202.776 80.509C202.924 80.6425 203.65 81.372 204.103 81.1135C204.463 80.9082 204.071 80.477 204.071 80.477C202.084 78.4395 200.088 77.0542 198.168 74.9531C197.667 74.4042 195.807 72.5603 196.921 71.742C197.267 71.4877 197.767 71.7729 198.044 72.0428L203.348 77.2045C204.127 77.9628 205.697 79.3098 205.967 79.1024C206.216 78.8792 206.038 78.5829 205.811 78.271C203.431 75.7126 201.845 74.2591 199.69 71.7815C199.218 71.2396 198.674 70.3921 199.198 69.9205C200.028 69.2467 201.612 71.016 202.318 71.7979C203.744 73.376 204.56 74.5583 206.3 76.192C206.797 76.6587 207.769 77.5371 208.028 77.2665C208.028 77.2665 209.312 77.2969 203.924 71.775C203.265 71.0997 202.79 70.3561 203.018 70.1397C203.432 69.2736 204.909 69.8182 206.197 71.3156L209.065 74.5897C210.714 76.3719 212.753 79.0782 214.415 81.1949C216.453 83.7931 218.893 87.3818 219.147 92.0835C219.307 93.0548 219.834 93.9274 220.62 94.5202" fill="white"/>
<path d="M216.427 98.8056C214.222 96.1019 211.501 93.8649 208.422 92.2255C207.847 91.9313 207.33 91.6969 206.801 91.4562C206.075 91.1264 205.324 90.7853 204.366 90.2668C203.16 89.6562 202.136 88.7392 201.396 87.6079L201.133 87.0969L204.905 86.9312L205.003 86.9935C205.236 87.1421 205.404 87.2572 205.549 87.3564C205.915 87.6199 206.313 87.8361 206.734 87.9997C206.799 88.0277 206.824 87.9913 206.824 87.9909C205.597 86.6139 203.556 84.7561 201.582 82.9593C199.672 81.2199 197.697 79.4211 196.361 77.9709C195.851 77.4817 195.537 76.8234 195.479 76.1194C195.501 75.8167 195.651 75.5378 195.891 75.3526C196.389 74.9563 197.059 75.0751 197.681 75.6694C198.683 76.6241 199.639 77.4059 200.652 78.2338C201.417 78.8599 202.209 79.5073 203.023 80.2364C203.245 80.4927 203.53 80.6863 203.851 80.7981C203.835 80.7716 203.817 80.7467 203.797 80.7236C202.909 79.8133 201.992 79.0122 201.104 78.2371C199.978 77.288 198.907 76.2749 197.897 75.2028L197.776 75.0731C196.915 74.1481 196.128 73.1721 196.21 72.2978C196.242 71.9554 196.422 71.6442 196.704 71.447C197.248 71.1595 197.919 71.2996 198.302 71.7805L203.605 76.9422C204.22 77.5493 204.884 78.1034 205.592 78.5984C205.569 78.5661 205.544 78.5293 205.514 78.4887C204.599 77.5089 203.781 76.6689 203.002 75.87C201.828 74.6642 200.718 73.5258 199.413 72.0246C198.548 71.0301 198.38 70.1642 198.952 69.6486C200.055 68.7475 201.694 70.5568 202.572 71.5294C203.076 72.0869 203.489 72.5762 203.891 73.0529C204.717 74.0655 205.606 75.0249 206.553 75.9252C206.909 76.2862 207.304 76.6065 207.731 76.8803C207.537 76.4421 206.758 75.207 203.661 72.0333C203.336 71.7006 202.582 70.864 202.593 70.2843C202.593 70.1576 202.634 70.0345 202.712 69.934C202.875 69.6221 203.182 69.4115 203.532 69.3719C204.34 69.2589 205.479 69.9164 206.477 71.0774L209.343 74.349C210.675 75.7892 212.283 77.8575 213.701 79.6823L214.705 80.9693C216.81 83.652 219.259 87.3376 219.516 92.0649C219.671 92.9105 220.129 93.6706 220.804 94.2027L220.436 94.8405C219.54 94.1874 218.944 93.2016 218.781 92.1046C218.537 87.6092 216.291 84.1827 214.126 81.4238L213.12 80.1343C211.711 78.3209 210.114 76.2659 208.795 74.8412L205.921 71.5596C204.986 70.4722 204.078 70.0453 203.629 70.1014C203.506 70.1101 203.399 70.187 203.351 70.3002L203.334 70.3341C203.531 70.7856 203.822 71.1897 204.188 71.5194C208.908 76.3567 208.61 77.041 208.483 77.3335C208.429 77.459 208.326 77.5568 208.198 77.6043C207.756 77.9069 207.037 77.3892 206.049 76.4618C205.081 75.5424 204.173 74.5625 203.329 73.5279C202.932 73.0571 202.523 72.5741 202.047 72.0459C200.668 70.5208 199.79 69.911 199.43 70.2077C199.178 70.4367 199.559 71.0716 199.969 71.5416C201.261 73.0269 202.363 74.1586 203.529 75.3564C204.312 76.1592 205.134 77.0029 206.082 78.0216C206.296 78.3125 206.733 78.9135 206.213 79.3781C206.037 79.5141 205.567 79.8786 203.092 77.4696L197.788 72.3079C197.577 72.1024 197.265 71.9475 197.139 72.04C197.027 72.1126 196.954 72.2331 196.943 72.3665C196.881 73.0323 197.923 74.1502 198.315 74.5708L198.441 74.7064C199.431 75.7586 200.482 76.7524 201.588 77.6826C202.486 78.4673 203.416 79.2784 204.335 80.2214C204.531 80.4228 204.632 80.6968 204.616 80.9768C204.583 81.172 204.461 81.341 204.287 81.4347C203.631 81.808 202.859 81.0894 202.568 80.8186C201.731 80.0665 200.945 79.4245 200.185 78.8034C199.207 78.0036 198.195 77.1766 197.173 76.2018C197.014 76.0491 196.616 75.7176 196.349 75.929C196.268 75.9865 196.218 76.0777 196.213 76.1767C196.292 76.6735 196.534 77.1295 196.902 77.4725C198.217 78.8984 200.179 80.6864 202.079 82.4153C204.157 84.3083 206.122 86.0967 207.361 87.4975C207.6 87.7518 207.624 88.14 207.42 88.4228C207.196 88.7278 206.788 88.8337 206.444 88.6764C205.979 88.4935 205.539 88.254 205.132 87.9633C205.014 87.8825 204.88 87.7905 204.705 87.677L202.384 87.7787C203.039 88.5331 203.83 89.1575 204.716 89.6194C205.651 90.1258 206.39 90.4615 207.105 90.7863C207.645 91.0315 208.172 91.2705 208.757 91.5702C211.932 93.2616 214.738 95.5694 217.011 98.3587L216.427 98.8056Z" fill="black"/>
<path d="M179.706 100.567C181.379 97.6264 183.649 95.0674 186.369 93.0547C187.595 92.14 188.557 91.6073 190.035 90.4526C190.823 89.837 191.973 89.0073 192.316 87.9597L189.368 88.023C188.877 88.482 188.333 88.8809 187.748 89.2113C187.371 89.4539 186.922 89.0863 187.159 88.7056C189.066 85.6416 193.606 80.4473 195.796 77.0832C195.975 76.8082 196.816 75.4217 195.953 74.9463C195.358 74.6184 194.834 75.2939 194.714 75.4545C193.228 77.4431 191.747 78.9153 190.202 80.8576C190.077 81.0141 189.483 81.8543 188.993 81.675C188.605 81.5325 188.919 81.042 188.919 81.042C190.538 78.7018 192.276 77.003 193.818 74.6114C194.221 73.9865 195.747 71.8583 194.513 71.2372C194.129 71.0441 193.684 71.4087 193.455 71.721L189.086 77.6948C188.445 78.5724 187.121 80.1624 186.82 80.0028C186.538 79.8243 186.664 79.5025 186.835 79.1572C188.755 76.2377 190.077 74.5401 191.789 71.7378C192.164 71.1249 192.559 70.1985 191.964 69.8209C191.033 69.2948 189.766 71.3036 189.2 72.1923C188.057 73.986 187.45 75.2877 186.007 77.1886C185.595 77.7317 184.782 78.76 184.482 78.5363C184.482 78.5363 183.221 78.7804 187.613 72.4373C188.151 71.6616 188.495 70.8493 188.234 70.6739C187.681 69.889 186.316 70.6722 185.296 72.3633L183.014 76.0698C181.685 78.102 180.125 81.1105 178.84 83.4746C177.263 86.3763 175.456 90.3215 175.989 94.9998C175.994 95.984 175.619 96.9324 174.943 97.6479" fill="white"/>
<path fill-rule="evenodd" clip-rule="evenodd" d="M179.381 100.394L180.032 100.737C181.681 97.846 183.914 95.3294 186.589 93.3478C187.107 92.9615 187.577 92.6443 188.06 92.3183C188.72 91.8725 189.404 91.4109 190.262 90.7408L190.44 90.6027C191.406 89.986 192.177 89.1086 192.665 88.0719L192.827 87.5785L189.223 87.6563L189.122 87.748C188.755 88.1011 188.348 88.4105 187.909 88.67L187.549 88.8997C187.489 88.9395 187.458 88.9064 187.472 88.8985C188.438 87.3471 190.135 85.1801 191.778 83.0831L191.785 83.0743C193.379 81.0398 195.028 78.9359 196.104 77.2823C196.526 76.7156 196.726 76.0141 196.666 75.3102C196.594 75.015 196.399 74.7646 196.131 74.6221C195.573 74.3149 194.934 74.5439 194.419 75.2323C193.59 76.3423 192.777 77.2731 191.916 78.2583C191.266 79.0028 190.594 79.7725 189.874 80.6786C189.503 81.1608 189.29 81.288 189.19 81.319C189.199 81.2949 189.21 81.2717 189.223 81.2495C189.955 80.1902 190.726 79.2468 191.472 78.3345C192.424 77.2116 193.311 76.0345 194.127 74.8092L194.223 74.6631C194.92 73.6072 195.534 72.5127 195.307 71.6636C195.219 71.3313 194.989 71.0546 194.679 70.9069C194.095 70.7125 193.455 70.9629 193.159 71.502L188.79 77.4756C188.284 78.1786 187.72 78.8371 187.102 79.444C187.114 79.4176 187.128 79.3887 187.143 79.3573C187.903 78.2009 188.57 77.2371 189.204 76.3197L189.236 76.2733C190.181 74.9051 191.077 73.6075 192.103 71.9281C192.791 70.803 192.812 69.9212 192.145 69.4989C190.925 68.8058 189.611 70.8616 188.89 71.9925C188.502 72.601 188.176 73.1535 187.857 73.6917C187.213 74.8266 186.497 75.9196 185.715 76.9642C185.423 77.3804 185.087 77.763 184.711 78.1047C184.828 77.6422 185.388 76.2958 187.916 72.645C188.181 72.2629 188.786 71.312 188.678 70.7424C188.657 70.6173 188.596 70.5027 188.503 70.4163C188.291 70.135 187.952 69.9782 187.6 69.9986C186.776 70.0275 185.772 70.86 184.983 72.1683L182.706 75.8664C181.627 77.5166 180.387 79.8232 179.293 81.858L178.517 83.2969C176.888 86.2927 175.088 90.3353 175.623 95.0395C175.617 95.9004 175.292 96.7284 174.709 97.3624L175.178 97.9299C175.953 97.1368 176.377 96.0653 176.355 94.9563C175.846 90.4826 177.489 86.7297 179.163 83.6485L179.941 82.2067C181.028 80.1848 182.26 77.8929 183.327 76.2607L185.611 72.5513C186.351 71.3258 187.174 70.7504 187.626 70.7345C187.748 70.7241 187.866 70.7815 187.933 70.8839L187.955 70.9153C187.837 71.393 187.617 71.8398 187.312 72.2257C183.464 77.782 183.871 78.4077 184.045 78.6747C184.12 78.7895 184.238 78.8689 184.372 78.8945C184.864 79.1188 185.482 78.4872 186.3 77.4095C187.101 76.3424 187.832 75.2257 188.491 74.0659L188.501 74.0498C188.812 73.5237 189.131 72.9827 189.527 72.3613C190.615 70.6562 191.378 69.9071 191.766 70.1301C192.072 70.3231 191.8 71.0124 191.475 71.5443C190.448 73.2247 189.55 74.5247 188.598 75.9012C187.961 76.8228 187.292 77.7913 186.506 78.992C186.365 79.2758 186.036 79.9408 186.648 80.3259C186.822 80.4188 187.344 80.6976 189.384 77.9102L193.753 71.9366C193.924 71.7039 194.211 71.4934 194.347 71.5645C194.471 71.6169 194.563 71.7236 194.597 71.8533C194.769 72.5003 193.926 73.7773 193.609 74.2577L193.508 74.4105C192.708 75.6129 191.838 76.7676 190.903 77.8688L190.898 77.8746C190.144 78.7965 189.365 79.7498 188.61 80.8416C188.456 81.0705 188.403 81.3532 188.466 81.6221C188.531 81.8092 188.679 81.9556 188.867 82.0185C189.57 82.2774 190.212 81.4456 190.488 81.0874L190.49 81.0852C191.153 80.2518 191.814 79.4946 192.453 78.7624L192.47 78.7427C193.302 77.7901 194.162 76.8053 195.008 75.6736C195.173 75.4547 195.49 75.1098 195.776 75.2668C195.865 75.3107 195.929 75.3921 195.952 75.4886C195.957 75.9913 195.793 76.4812 195.488 76.8806C194.431 78.5047 192.795 80.5924 191.213 82.612L191.206 82.6207C189.472 84.8326 187.835 86.9223 186.847 88.5094C186.654 88.8 186.694 89.1865 186.943 89.4314C187.215 89.6931 187.634 89.7295 187.948 89.5189L188.304 89.2908C188.739 89.0341 189.144 88.7308 189.512 88.3863L191.729 88.3386C191.245 88.9916 190.657 89.5601 189.989 90.0211L189.809 90.1609C188.971 90.8155 188.299 91.2696 187.648 91.7086C187.156 92.0405 186.677 92.3644 186.149 92.7579C183.38 94.7983 181.074 97.4006 179.381 100.394Z" fill="black"/>
<path d="M179.922 102.875C167.382 123.917 158.845 145.997 154.808 171.72C153.137 181.921 154.623 192.388 159.068 201.72C162.479 208.817 169.088 214.303 176.365 215.049C176.345 215.226 176.351 215.405 176.382 215.58C177.495 221.318 178.134 227.138 178.294 232.98C178.371 240.24 177.574 249.557 175.782 256.5C174.411 261.832 171.162 267.926 168.034 270.995C170.185 259.492 167.416 247.483 163.542 241.063C158.545 232.697 150.934 224.786 145.705 215.066C140.168 204.772 138.291 198.686 138.205 189.566C138.222 181.346 139.217 173.157 141.171 165.172C143.965 153.823 154.508 122.52 173.048 98.5889C173.617 97.851 174.625 97.6116 175.465 98.0146L179.091 100.106C179.588 100.343 179.962 100.779 180.12 101.306C180.278 101.833 180.207 102.403 179.922 102.875Z" fill="white"/>
<path fill-rule="evenodd" clip-rule="evenodd" d="M167.613 270.914L167.363 272.251L168.335 271.298C171.499 268.195 174.805 262.016 176.198 256.605C178.164 248.983 178.791 239.4 178.723 232.973C178.596 227.542 178.026 222.13 177.019 216.791L176.804 215.498C176.78 215.363 176.777 215.225 176.792 215.088L176.833 214.664L176.409 214.62C169.595 213.922 162.941 208.785 159.455 201.533C155.047 192.279 153.574 181.899 155.232 171.785C159.105 147.109 167.068 125.282 180.29 103.093C180.637 102.516 180.724 101.819 180.53 101.175C180.341 100.544 179.897 100.022 179.306 99.7326L175.651 97.6261C174.628 97.1374 173.403 97.4281 172.709 98.3242C154.713 121.555 143.938 152.141 140.756 165.067C138.789 173.086 137.789 181.312 137.777 189.568C137.863 198.662 139.626 204.666 145.328 215.267C148.326 220.536 151.723 225.568 155.489 230.318C158.243 233.835 160.809 237.495 163.176 241.283C166.845 247.362 169.799 259.227 167.613 270.914ZM173.388 98.8478C173.683 98.4664 174.139 98.2431 174.621 98.2431C174.839 98.2422 175.054 98.2903 175.251 98.3837L178.908 100.491C179.296 100.673 179.587 101.012 179.71 101.423C179.833 101.836 179.777 102.282 179.556 102.652L179.555 102.653C166.273 124.94 158.276 146.865 154.385 171.652C152.7 181.938 154.199 192.494 158.683 201.904C162.228 209.281 168.965 214.549 175.932 215.428C175.937 215.502 175.946 215.576 175.96 215.648L176.174 216.932C177.173 222.228 177.739 227.595 177.866 232.983C177.934 239.354 177.314 248.85 175.368 256.391C174.085 261.225 171.813 265.74 168.696 269.651C170.441 258.211 167.511 246.807 163.911 240.841C161.529 237.028 158.946 233.343 156.174 229.802C152.435 225.086 149.061 220.091 146.083 214.861C140.458 204.403 138.718 198.492 138.634 189.56C138.647 181.375 139.638 173.221 141.588 165.272C144.755 152.406 155.478 121.966 173.388 98.8478Z" fill="black"/>
<path d="M254.838 200.981C249.001 213.615 242.058 220.893 232.526 236.69C225.069 248.93 225.806 263.184 228.721 276.041C229.183 278.073 230.109 281.433 230.812 283.91C230.494 283.64 230.153 283.399 229.792 283.19C223.081 279.238 217.475 267.213 215.624 256.113C213.549 243.701 212.932 230.235 215.418 217.858C215.445 217.72 215.459 217.579 215.461 217.438C215.995 217.405 216.527 217.342 217.055 217.25C220.886 216.564 224.855 213.933 227.581 211.155C242.006 196.438 250.029 166.258 245.941 146.055C241.972 126.487 230.624 113.313 216.884 100.498C216.542 100.181 216.346 99.7375 216.339 99.2713C216.333 98.8052 216.517 98.3567 216.849 98.0297L220.081 94.524C220.717 93.8979 221.727 93.8643 222.404 94.4469C233.738 103.959 243.298 115.404 250.638 128.253C254.522 135.192 257.648 142.528 259.964 150.135C265.466 169.267 262.381 184.661 254.838 200.981Z" fill="white"/>
<path fill-rule="evenodd" clip-rule="evenodd" d="M230.533 284.235L231.617 285.172L231.226 283.794C230.661 281.806 229.64 278.143 229.139 275.948C225.485 259.826 226.713 247.057 232.894 236.913C236.753 230.516 240.231 225.456 243.3 220.991L243.3 220.989L243.301 220.988C247.831 214.397 251.743 208.704 255.227 201.162V201.163C263.808 182.598 265.347 167.303 260.376 150.019C258.058 142.374 254.917 135.003 251.008 128.037C243.646 115.146 234.056 103.664 222.684 94.1234C221.83 93.3972 220.562 93.4458 219.767 94.2352L216.551 97.7244C216.135 98.1274 215.903 98.6844 215.911 99.2638C215.915 99.8521 216.161 100.413 216.592 100.813C231.202 114.44 241.712 127.362 245.521 146.142C249.713 166.854 241.357 196.49 227.276 210.857C224.898 213.279 220.946 216.12 216.981 216.829C216.469 216.919 215.953 216.98 215.434 217.012L215.033 217.038V217.44C215.032 217.552 215.02 217.665 214.998 217.775C212.747 228.985 212.816 241.908 215.201 256.185C216.94 266.607 222.435 279.357 229.573 283.56C229.913 283.756 230.234 283.982 230.533 284.235ZM215.838 217.942C215.845 217.908 215.852 217.874 215.857 217.84C216.296 217.801 216.723 217.745 217.131 217.673C220.667 217.04 224.688 214.716 227.888 211.457C242.142 196.914 250.602 166.926 246.361 145.971C242.508 126.969 231.907 113.925 217.178 100.187C216.919 99.9473 216.771 99.6108 216.768 99.2575C216.766 98.9041 216.909 98.5655 217.165 98.3217L220.383 94.8308C220.861 94.3641 221.617 94.3393 222.125 94.7734C233.425 104.254 242.954 115.663 250.27 128.472C254.13 135.382 257.242 142.685 259.553 150.255C264.462 167.325 262.936 182.442 254.449 200.803V200.803C250.995 208.279 247.102 213.944 242.594 220.504C239.518 224.979 236.033 230.051 232.162 236.468C225.859 246.811 224.598 259.787 228.304 276.138C228.72 277.97 229.495 280.804 230.071 282.858C230.061 282.852 230.05 282.846 230.04 282.84C230.03 282.834 230.02 282.828 230.01 282.822C223.096 278.751 217.753 266.27 216.047 256.043C213.678 241.87 213.607 229.051 215.838 217.942Z" fill="black"/>
<path d="M239.847 370.879C237.395 383.985 233.084 398.891 230.358 410.668C221.69 448.134 215.157 496.012 208.146 537.166C208.021 537.917 207.457 538.519 206.716 538.691C202.387 539.677 196.542 538.925 193.691 538.445C192.724 538.285 192.037 537.416 192.105 536.438C193.087 522.531 199.544 425.637 194.058 357.139C194.058 357.139 192.789 336.559 188.341 333.259C185.427 331.091 181.355 330.765 172.587 336.191C172.587 336.191 129.798 364.725 116.864 373.125C112.158 376.365 112.612 379.725 114.292 383.394C114.718 384.33 115.307 385.184 116.032 385.914C131.041 400.965 146.084 409.545 160.492 421.305C162.056 422.571 157.191 430.362 154.436 433.64C153.863 434.331 152.883 434.524 152.091 434.101C135.536 425.235 114.254 412.746 101.769 405.559C94.7432 401.567 88.0501 397.015 81.7552 391.948C77.9095 389.045 75.0127 385.065 73.4323 380.514C70.2779 371.428 76.0636 363.302 79.4323 359.462C99.4465 336.688 141.927 305.745 154.184 293.308C159.534 287.979 163.511 281.432 165.774 274.229C166.13 273.118 166.78 272.126 167.655 271.355C170.898 268.419 174.35 262.05 175.784 256.502C177.575 249.559 177.982 240.188 177.904 232.928C177.745 227.09 177.102 221.275 175.984 215.543C175.897 215.012 176.038 214.469 176.373 214.049C176.708 213.628 177.205 213.368 177.741 213.334L181.905 213.145C182.903 213.078 183.782 213.795 183.917 214.786C184.19 216.796 184.603 219.796 184.609 219.825C185.835 228.259 186.429 236.325 187.818 244.956C188.161 247.125 188.649 249.525 190.432 250.811C192.371 251.911 194.712 252.045 196.763 251.171C198.435 250.229 199.832 248.867 200.818 247.22C204.169 242.137 204.827 234.566 206.019 228.6C206.65 225.425 207.65 219.602 208.155 216.383C208.238 215.855 208.54 215.385 208.987 215.09C209.434 214.796 209.985 214.703 210.503 214.835L214.419 215.755C215.41 216.009 216.025 216.999 215.815 218C213.326 230.38 213.547 243.7 215.624 256.116C217.478 267.214 223.084 279.242 229.791 283.191C231.447 284.131 232.69 285.658 233.274 287.469C235.84 295.832 238.726 304.049 240.635 314.162C244.278 332.921 244.01 352.229 239.847 370.879V370.879Z" fill="black"/>
<path d="M183.396 214.234C181.141 215.02 178.741 215.298 176.367 215.048C176.475 214.133 177.222 213.426 178.142 213.368L181.561 213.145C182.34 213.09 183.072 213.524 183.396 214.234Z" fill="black"/>
<path d="M215.461 217.438C213.118 217.557 210.795 216.959 208.801 215.723C209.232 214.986 210.098 214.623 210.926 214.832L214.021 215.612C214.86 215.822 215.452 216.572 215.461 217.438Z" fill="black"/>
<path d="M204.271 151.972C199.948 152.356 196.864 156.308 194.683 159.647C192.315 163.198 190.658 167.175 189.804 171.357C188.955 174.463 188.899 177.733 189.641 180.867C190.81 185.252 194.378 188.185 200.12 188.713C205.993 189.253 210.105 188.566 212.927 185.012C216.219 180.867 217.073 175.978 217.521 171.462C217.79 167.756 217.327 164.033 216.158 160.506C215.156 157.527 211.83 151.301 204.271 151.972Z" fill="white"/>
<path fill-rule="evenodd" clip-rule="evenodd" d="M200.081 189.14C201.241 189.247 202.314 189.301 203.31 189.301C208.065 189.301 211.058 188.055 213.264 185.278C216.595 181.083 217.484 176.179 217.948 171.504C218.224 167.738 217.754 163.954 216.564 160.37C216.024 158.761 212.885 150.771 204.233 151.545C199.745 151.943 196.581 155.959 194.325 159.413C191.926 163.004 190.249 167.028 189.387 171.26C188.517 174.434 188.462 177.776 189.227 180.977C190.49 185.713 194.344 188.612 200.081 189.14ZM195.043 159.881C197.192 156.59 200.188 152.764 204.309 152.399V152.399C212.337 151.689 215.247 159.142 215.752 160.643C216.904 164.112 217.361 167.774 217.096 171.42C216.644 175.964 215.786 180.723 212.592 184.745C210.13 187.846 206.529 188.87 200.159 188.286C194.807 187.794 191.219 185.119 190.055 180.756C189.328 177.691 189.386 174.492 190.222 171.454C191.063 167.32 192.701 163.39 195.043 159.881Z" fill="black"/>
<path d="M202.786 181.551C202.106 181.554 201.435 181.4 200.825 181.099C200.615 180.993 200.53 180.736 200.635 180.525C200.741 180.313 200.997 180.227 201.209 180.332C202.789 181.061 204.663 180.63 205.767 179.285C205.86 179.163 206.011 179.101 206.163 179.121C206.314 179.141 206.444 179.241 206.503 179.382C206.561 179.524 206.54 179.686 206.446 179.807C205.558 180.918 204.209 181.561 202.786 181.551V181.551Z" fill="black"/>
<path d="M201.42 174.648C200.626 174.758 199.838 174.407 199.389 173.743C199.097 173.155 199.134 172.458 199.485 171.903C199.915 171.27 200.604 170.861 201.365 170.784C202.041 170.746 202.719 170.809 203.376 170.971C203.607 171.025 203.749 171.256 203.695 171.487C203.64 171.717 203.409 171.86 203.179 171.805C202.619 171.666 202.042 171.609 201.465 171.635C200.964 171.679 200.507 171.941 200.215 172.351C200.028 172.642 199.998 173.006 200.135 173.323C200.355 173.715 200.956 173.802 201.445 173.791C202.075 173.798 202.703 173.734 203.318 173.598C203.467 173.563 203.623 173.61 203.728 173.721C203.833 173.832 203.871 173.991 203.827 174.138C203.783 174.285 203.664 174.397 203.515 174.432C202.837 174.583 202.145 174.655 201.45 174.648H201.42Z" fill="black"/>
<path d="M197.563 167.725C196.307 167.812 195.195 166.915 195.015 165.669C194.973 165.436 195.128 165.213 195.361 165.171C195.594 165.129 195.817 165.284 195.858 165.517C195.96 166.359 196.721 166.961 197.563 166.868C198.693 166.868 199.373 166.465 199.582 165.669C199.643 165.441 199.877 165.305 200.106 165.365C200.334 165.425 200.47 165.659 200.411 165.887C200.23 166.573 199.62 167.725 197.563 167.725Z" fill="black"/>
<path d="M209.284 168.829C209.193 168.829 209.101 168.827 209.007 168.821C207.698 168.81 206.59 167.852 206.39 166.559C206.366 166.407 206.425 166.255 206.544 166.158C206.663 166.062 206.824 166.036 206.967 166.091C207.11 166.146 207.213 166.273 207.237 166.424C207.366 167.323 208.146 167.985 209.054 167.966C209.993 168.165 210.937 167.648 211.274 166.749C211.314 166.599 211.431 166.483 211.58 166.444C211.73 166.405 211.889 166.449 211.996 166.56C212.104 166.671 212.143 166.832 212.1 166.98C211.727 168.193 210.545 168.97 209.284 168.829V168.829Z" fill="black"/>
<path d="M218.388 169.756C218.73 170.27 218.662 170.953 218.227 171.391C217.766 171.767 218.424 172.418 218.881 172.045C219.616 171.311 219.743 170.166 219.187 169.289C218.832 168.821 218.029 169.281 218.388 169.756V169.756Z" fill="black"/>
<path d="M229.767 190.995C228.786 191.788 227.581 192.253 226.321 192.323C220.651 192.718 215.524 188.961 214.193 183.435L214.056 183.409C216.43 179.638 217.133 175.403 217.518 171.461C217.743 168.647 217.523 165.815 216.867 163.069C216.175 162.579 215.457 162.126 214.716 161.715C214.405 161.601 214.124 161.419 213.893 161.183C213.715 160.94 213.59 160.663 213.524 160.369C213.027 158.706 212.53 157.041 212.033 155.372C212.047 156.685 211.882 157.994 211.544 159.263C211.328 160.053 210.523 160.528 209.727 160.335C207.895 159.897 206.027 159.624 204.147 159.521C203.72 159.497 203.322 159.296 203.051 158.965C202.781 158.633 202.662 158.204 202.724 157.781L203.127 155.046C202.424 156.563 199.998 159.195 198.07 159.152C197.367 159.135 196.193 159.015 195.181 158.895C195.01 159.152 194.847 159.401 194.684 159.649C192.317 163.2 190.66 167.176 189.807 171.358C189.127 173.943 188.958 176.636 189.31 179.286C185.513 182.912 177.55 186.083 172.681 184.361C169.956 183.392 168.575 179.741 169.287 176.938C170.95 170.398 181.004 160.858 183.558 158.115C187.75 153.632 194.401 148.163 199.381 145.978C205.638 143.218 212.084 143.183 216.764 147.152C218.791 149.044 220.405 151.335 221.504 153.881C224.452 160.001 226.253 166.592 228.044 173.141C228.901 176.269 229.755 179.398 230.607 182.526C231.395 185.423 231.995 188.998 229.767 190.995Z" fill="black"/>
<circle cx="206.882" cy="256.509" r="3.07953" fill="white"/>
<ellipse cx="182.796" cy="255.736" rx="3.07953" ry="3.07954" fill="white"/>
<path d="M208.534 574.809C207.857 578.032 203.666 578.795 201.129 580.886C198.154 583.329 198.232 584.795 197.623 589.749C197.272 592.569 197.589 596.117 195.034 597.369C193.346 598.286 188.572 598.235 187.106 597.952C185.545 597.833 184.352 596.508 184.397 594.943C184.321 593.121 185.164 591.382 186.643 590.315C189.515 588.283 189.506 585.129 189.497 581.992C193.116 581.558 196.287 579.364 197.966 576.129C198.5 574.992 198.933 573.81 199.26 572.597C200.143 569.675 201.029 566.749 201.917 563.82C202.423 565.835 204.369 567.6 205.706 568.877C207.36 570.463 209.014 572.572 208.534 574.809Z" fill="black"/>
<path d="M195.18 470.976C195.128 471.593 194.854 473.153 193.834 473.718C193.028 474.156 191.091 474.396 190.508 471.593C189.848 468.447 187.971 463.87 186.925 460.827C186.668 460.09 186.01 458.596 185.555 457.618C186.987 454.824 187.215 452.035 186.882 448.758C186.648 446.519 185.934 444.356 184.791 442.416C187.234 442.827 190.844 441.578 192.875 442.898C197.135 445.641 193.311 452.17 193.148 454.81C192.831 459.91 195.608 465.867 195.18 470.976Z" fill="black"/>
<path d="M196.324 534.086C196.302 534.086 196.28 534.084 196.259 534.081C192.941 533.585 192.96 533.269 192.977 532.99C192.994 532.767 193.177 532.593 193.401 532.586C193.487 532.585 193.572 532.609 193.645 532.655C194.543 532.916 195.459 533.11 196.386 533.234C196.608 533.267 196.766 533.466 196.75 533.689C196.733 533.912 196.548 534.085 196.324 534.086V534.086Z" fill="white"/>
<path d="M201.613 534.466C200.568 534.466 199.517 534.424 198.491 534.339C198.378 534.33 198.273 534.276 198.199 534.189C198.126 534.103 198.09 533.99 198.099 533.877C198.122 533.643 198.326 533.469 198.561 533.485C199.817 533.588 201.077 533.625 202.399 533.602H202.407C202.644 533.599 202.838 533.789 202.84 534.026C202.843 534.263 202.652 534.457 202.416 534.459C202.143 534.464 201.876 534.466 201.613 534.466Z" fill="white"/>
<path d="M204.627 534.347C204.397 534.346 204.208 534.164 204.2 533.934C204.191 533.704 204.366 533.508 204.595 533.491C205.569 533.417 206.562 533.303 207.544 533.153C207.778 533.118 207.996 533.279 208.031 533.512C208.067 533.746 207.907 533.964 207.673 534C206.669 534.153 205.656 534.27 204.661 534.346C204.65 534.347 204.639 534.347 204.627 534.347Z" fill="white"/>
<path d="M147.503 430.75C147.435 430.747 147.37 430.723 147.315 430.683C147.129 430.564 147.061 430.325 147.156 430.126C147.196 430.043 147.262 429.976 147.343 429.933C148.012 429.279 148.631 428.575 149.195 427.828C149.34 427.643 149.608 427.609 149.795 427.754C149.981 427.899 150.015 428.167 149.871 428.354C148.298 430.379 147.767 430.75 147.503 430.75Z" fill="white"/>
<path d="M150.835 426.705C150.677 426.705 150.532 426.618 150.457 426.479C150.382 426.339 150.391 426.17 150.478 426.039C151.19 424.97 151.833 423.857 152.404 422.707C152.472 422.57 152.608 422.479 152.761 422.47C152.914 422.46 153.06 422.532 153.145 422.66C153.23 422.787 153.241 422.95 153.173 423.087C152.585 424.27 151.924 425.415 151.191 426.514C151.112 426.634 150.978 426.705 150.835 426.705Z" fill="white"/>
<path d="M153.704 421.286C153.562 421.286 153.429 421.215 153.349 421.098C153.269 420.98 153.253 420.83 153.306 420.698C153.674 419.784 153.991 418.85 154.255 417.9C154.318 417.672 154.553 417.539 154.781 417.601C155.009 417.664 155.143 417.9 155.08 418.128C154.808 419.109 154.482 420.073 154.102 421.017C154.036 421.18 153.879 421.286 153.704 421.286V421.286Z" fill="white"/>
<path d="M217.129 167.761C217.561 167.333 218.192 167.176 218.774 167.352C219.489 167.54 220.063 168.073 220.304 168.773C220.67 169.598 220.768 170.519 220.584 171.403C220.461 172.339 219.9 173.16 219.073 173.614C218.292 173.982 216.582 173.742 216.383 172.895L217.129 167.761Z" fill="white"/>
<path d="M217.456 168.087C217.831 167.806 218.315 167.714 218.767 167.838C219.219 167.962 219.588 168.288 219.768 168.721C220.139 169.419 220.282 170.216 220.176 170.999C220.157 171.96 219.601 172.828 218.737 173.247C218.222 173.416 217.065 173.361 216.829 172.772C216.61 172.227 215.716 172.465 215.937 173.018C216.453 173.98 217.556 174.47 218.616 174.209C219.925 173.902 220.896 172.801 221.038 171.464C221.347 170.084 220.986 168.638 220.064 167.565C219.187 166.657 217.75 166.599 216.803 167.434C216.359 167.832 217.015 168.484 217.456 168.087H217.456Z" fill="black"/>
<path d="M309.381 342.057C314.034 336.985 317.114 330.671 318.249 323.882C318.753 320.826 318.544 316.003 314.889 315.622C312.861 315.382 310.914 316.495 310.092 318.364C308.167 321.988 310.14 327.425 313.128 330.238C316.117 333.05 320.415 334.123 324.517 334.012C337.027 333.671 346.95 323.833 355.467 314.664" stroke="black" stroke-linecap="round"/>
<path d="M37.4179 282.702C41.3257 276.38 46.5766 270.65 53.3674 267.4C60.1859 264.136 69.2153 262.236 76.1376 266.202C77.9 267.212 79.227 268.472 79.1833 270.626C79.1391 272.804 77.8704 274.036 76.031 274.927C72.9389 276.394 69.4585 276.833 66.0989 276.18C59.4714 274.905 54.3289 269.654 53.1918 263.002C52.0579 255.282 55.5414 247.612 62.1005 243.387C62.5652 243.092 62.1356 242.35 61.6679 242.647C55.3288 246.727 51.6885 253.914 52.149 261.438C52.6572 268.728 57.7442 274.887 64.806 276.764C69.7459 278.06 80.8001 277.227 80.0122 269.885C79.6281 266.306 75.6019 264.632 72.5459 263.812C68.3215 262.832 63.9154 262.96 59.7553 264.185C49.7016 266.812 42.067 273.55 36.6777 282.27C36.3869 282.74 37.1281 283.171 37.4179 282.702V282.702Z" fill="black"/>
<path d="M307.222 240.101L310.799 234.292C311.089 233.82 310.348 233.389 310.059 233.859L306.482 239.669C306.192 240.14 306.933 240.571 307.222 240.101Z" fill="black"/>
<path d="M116.271 6.44491L119.848 0.635264C120.138 0.16423 119.397 -0.266776 119.108 0.202647L115.531 6.01229C115.241 6.48333 115.982 6.91433 116.271 6.44491V6.44491Z" fill="black"/>
<path d="M378.636 254.31L382.321 259.583C382.634 260.032 383.378 259.604 383.061 259.151L379.376 253.878C379.062 253.429 378.319 253.857 378.636 254.31Z" fill="black"/>
<path d="M249.85 14.5682L253.536 19.841C253.849 20.2899 254.593 19.862 254.276 19.4084L250.591 14.1355C250.277 13.6867 249.533 14.1146 249.85 14.5682Z" fill="black"/>
<path d="M329.477 151.675L335.976 145.183C336.134 145.014 336.13 144.75 335.966 144.587C335.803 144.423 335.539 144.419 335.37 144.577L328.871 151.069C328.714 151.238 328.718 151.501 328.881 151.665C329.045 151.828 329.309 151.833 329.477 151.675H329.477Z" fill="black"/>
<path d="M353.637 456.071L357.903 450.915C358.252 450.493 357.649 449.883 357.297 450.308L353.031 455.465C352.682 455.887 353.285 456.496 353.637 456.071H353.637Z" fill="black"/>
<path d="M269.836 408.97V400.047C269.828 399.816 269.638 399.633 269.407 399.633C269.176 399.633 268.987 399.816 268.979 400.047V408.97C268.987 409.201 269.176 409.384 269.407 409.384C269.638 409.384 269.828 409.201 269.836 408.97V408.97Z" fill="black"/>
<path d="M30.6852 438.904C32.7283 437.667 34.5764 436.133 36.1687 434.353C36.5355 433.943 35.9312 433.335 35.5626 433.747C34.0215 435.474 32.2319 436.963 30.2526 438.163C30.0572 438.287 29.9948 438.543 30.1114 438.742C30.228 438.942 30.4818 439.013 30.6852 438.904H30.6852Z" fill="black"/>
<path d="M34.3923 339.022C36.4029 341.41 38.582 343.65 40.9127 345.726C41.3234 346.092 41.9317 345.488 41.5188 345.12C39.188 343.044 37.009 340.804 34.9984 338.416C34.6426 337.994 34.039 338.603 34.3923 339.022Z" fill="black"/>
<path d="M72.7434 178.124L76.0148 185.378C76.2412 185.88 76.9801 185.445 76.755 184.946L73.4835 177.691C73.2571 177.189 72.5182 177.625 72.7434 178.124Z" fill="black"/>
<path d="M29.3307 201.09L33.3574 194.047C33.4672 193.843 33.396 193.589 33.1964 193.473C32.9968 193.356 32.7407 193.419 32.6173 193.614L28.5906 200.657C28.4808 200.861 28.552 201.115 28.7516 201.231C28.9512 201.348 29.2073 201.285 29.3307 201.09V201.09Z" fill="black"/>
<path d="M17.5264 100.418L25.1453 109.212C25.5072 109.63 26.1112 109.021 25.7514 108.606L18.1325 99.8121C17.7707 99.3945 17.1666 100.003 17.5264 100.418V100.418Z" fill="black"/>
</svg>
