<svg width="76" height="76" viewBox="0 0 76 76" fill="none" xmlns="http://www.w3.org/2000/svg">
<path fill-rule="evenodd" clip-rule="evenodd" d="M65.6315 29.9151L74.372 19.664C74.9069 19.0729 75.1278 18.2622 74.9667 17.4815C74.8055 16.7008 74.2817 16.0438 73.5566 15.7128L48.3261 3.24068C48.0786 3.11825 47.7786 3.21968 47.6562 3.46724C47.5338 3.71479 47.6352 4.01473 47.8828 4.13716L73.1308 16.6176C73.5718 16.8148 73.8908 17.2123 73.9878 17.6855C74.0848 18.1587 73.9479 18.6496 73.6201 19.0043L64.7606 29.3947L52.8437 22.4487C52.605 22.3096 52.2988 22.3902 52.1596 22.6289C52.0205 22.8676 52.1011 23.1738 52.3398 23.313L63.8142 30.001L37.663 42.4907L11.5345 30.0114L22.5283 23.9047C22.6857 23.8185 22.7849 23.6546 22.7881 23.4751C22.7914 23.2957 22.6982 23.1282 22.544 23.0364C22.3898 22.9445 22.1982 22.9424 22.0419 23.0307L10.8077 29.2709L2.08589 19.1103C1.75705 18.7551 1.61966 18.2631 1.71689 17.7888C1.81411 17.3146 2.13402 16.9164 2.57612 16.7192L27.1337 4.13375C27.2938 4.05272 27.3981 3.89221 27.4073 3.71309C27.4164 3.53396 27.3289 3.36366 27.178 3.26676C27.0271 3.16986 26.8358 3.16121 26.6767 3.2441L2.13764 15.8203C1.41426 16.155 0.893734 16.8145 0.736135 17.5958C0.578536 18.3772 0.802738 19.1868 1.33979 19.7758L9.87849 29.7247L1.28608 37.8208C0.703631 38.3691 0.418883 39.1632 0.520117 39.9567C0.621351 40.7503 1.09633 41.4474 1.7978 41.832L9.94428 46.3572V60.8164C9.94721 61.7785 10.4994 62.6545 11.3662 63.0722L36.5859 75.1171C37.2671 75.444 38.0599 75.444 38.7412 75.1171L63.9609 63.0722C64.8277 62.6545 65.3798 61.7785 65.3828 60.8164V46.1504L73.4228 41.7553C74.1255 41.3716 74.6019 40.6744 74.704 39.8802C74.806 39.086 74.5213 38.291 73.9384 37.7421L65.6315 29.9151ZM1.51264 39.832C1.44856 39.355 1.61964 38.8765 1.97164 38.5483L10.4203 30.5877L36.6225 43.1021L26.1152 53.001C25.6444 53.4467 24.9399 53.538 24.371 53.2271L2.28022 40.956C1.85739 40.7278 1.57132 40.3089 1.51264 39.832ZM10.9443 60.8164C10.946 61.3938 11.2775 61.9195 11.7978 62.1699L37.0175 74.2148C37.0651 74.2342 37.1137 74.2511 37.163 74.2654V43.9663L26.8007 53.7285C26.0142 54.4721 24.8377 54.6234 23.8886 54.103L10.9443 46.9127V60.8164ZM64.3828 60.8164C64.3811 61.3938 64.0496 61.9195 63.5293 62.1699L38.3095 74.2148C38.2616 74.2343 38.2127 74.2514 38.163 74.2658V44.5358L47.9208 53.7285C48.7079 54.4728 49.8853 54.6241 50.8349 54.103L64.3828 46.697L64.3828 60.8164ZM72.9433 40.8774C73.3668 40.649 73.6536 40.2298 73.7129 39.7524C73.7761 39.2757 73.6047 38.798 73.2529 38.4702L64.894 30.5937L38.3024 43.2937L48.6064 53.0009C49.079 53.4474 49.7856 53.5379 50.3554 53.225L72.9433 40.8774Z" fill="black"/>
<path d="M36.3109 25.7559C36.8961 26.3242 37.8272 26.3242 38.4124 25.7559L46.5745 17.75C46.7703 17.5561 46.7725 17.2405 46.5794 17.0439C46.3864 16.8473 46.0707 16.8439 45.8734 17.0361L37.8617 24.8945V0.5C37.8617 0.223858 37.6378 0 37.3617 0C37.0855 0 36.8617 0.223858 36.8617 0.5V24.8955L28.849 17.0361C28.7214 16.9109 28.5368 16.8632 28.3645 16.911C28.1923 16.9588 28.0587 17.0949 28.014 17.2679C27.9693 17.441 28.0203 17.6247 28.1478 17.75L36.3109 25.7559Z" fill="black"/>
</svg>
