<svg width="71" height="74" viewBox="0 0 71 74" fill="none" xmlns="http://www.w3.org/2000/svg">
<path fill-rule="evenodd" clip-rule="evenodd" d="M70.4606 0.591009L70.4598 0.594119C71.223 17.4643 66.3339 30.621 55.9389 39.7148C56.2627 41.1105 57.3318 47.0445 53.2844 51.2775C51.6667 52.9699 50.1721 54.4738 48.842 55.7477C48.3763 56.199 47.7532 56.4514 47.1047 56.4514C46.9504 56.4513 46.7965 56.4374 46.6447 56.4098C45.8471 56.2694 45.1669 55.7513 44.8195 55.0197L41.5172 48.1662C38.7082 49.2367 35.7907 49.9972 32.8165 50.4343L32.5773 50.4616L20.1765 38.0934L20.2028 37.8537C20.6341 34.8657 21.391 31.9338 22.4601 29.1105C21.5836 28.7347 19.7234 27.8449 15.59 25.8677L15.5831 25.8644C14.8533 25.5158 14.3346 24.8386 14.1882 24.043C14.0418 23.2475 14.2854 22.43 14.8434 21.8444C16.1056 20.5187 17.6056 19.0197 19.3014 17.3889C23.5239 13.3296 29.4604 14.3818 30.8571 14.7016C39.9295 4.27124 53.0861 -0.656491 69.9821 0.0700591C70.0041 0.0738344 70.0259 0.0791813 70.0472 0.0860591C70.2179 0.106222 70.3627 0.220702 70.4217 0.382119C70.4311 0.411252 70.4378 0.441184 70.4417 0.471539C70.4492 0.496425 70.4548 0.521825 70.4587 0.547539L70.4596 0.584539L70.4606 0.591009ZM54.9382 39.3204C54.9712 39.2526 55.0193 39.1933 55.0787 39.147C65.2884 30.3339 70.1245 17.5176 69.4723 1.05872C53.006 0.457579 40.2097 5.3263 31.4263 15.5609L31.4088 15.5801L31.4078 15.5812L31.4054 15.583C31.3606 15.6338 31.3058 15.6749 31.2444 15.7037C31.2286 15.7101 31.2124 15.7155 31.1959 15.72C31.1497 15.7376 31.1011 15.748 31.0517 15.7509C31.0436 15.7513 31.0361 15.7561 31.0279 15.7561C31.0067 15.7537 30.9858 15.75 30.9651 15.7451C30.9423 15.7452 30.9196 15.7436 30.8971 15.7404C30.8321 15.7223 24.2867 13.9826 19.9947 18.1096C18.3092 19.7302 16.82 21.2189 15.568 22.5339C15.2305 22.8874 15.0831 23.3814 15.1715 23.862C15.2599 24.3427 15.5735 24.7518 16.0148 24.9621C16.0148 24.9621 23.192 28.3957 23.2868 28.4406L23.7023 28.6369L23.5421 29.0681C22.4723 31.8672 21.6966 34.77 21.2277 37.7297L32.9381 49.4093C35.8963 48.932 38.7969 48.1481 41.5929 47.0705C42.048 46.964 42.0485 46.965 45.6738 54.4895L45.7203 54.5861C45.9321 55.0267 46.3423 55.339 46.8233 55.426C47.3043 55.513 47.7979 55.3641 48.1505 55.0256C49.4699 53.7619 50.9542 52.2682 52.5617 50.5861C56.6774 46.2819 54.9181 39.7428 54.9 39.6769C54.8916 39.6359 54.8885 39.594 54.8909 39.5522C54.8909 39.545 54.8899 39.5379 54.889 39.5308C54.8877 39.5214 54.8864 39.5119 54.8873 39.5024C54.8926 39.4475 54.9072 39.3939 54.9304 39.3439C54.9338 39.3362 54.9345 39.3279 54.9382 39.3204Z" fill="black"/>
<path fill-rule="evenodd" clip-rule="evenodd" d="M39.4453 23.5938C39.4454 19.2875 42.9364 15.7967 47.2427 15.7969C51.5468 15.8021 55.0346 19.2901 55.0396 23.5942C55.0394 27.9005 51.5484 31.3912 47.2422 31.3911C42.936 31.391 39.4452 27.9 39.4453 23.5938ZM40.9628 26.1953C42.0149 28.7352 44.4935 30.3912 47.2427 30.3911C50.9947 30.3868 54.0352 27.3463 54.0396 23.5942C54.0396 20.845 52.3836 18.3664 49.8437 17.3143C47.3038 16.2622 44.3801 16.8437 42.4361 18.7877C40.4921 20.7317 39.9106 23.6553 40.9628 26.1953Z" fill="black"/>
<path d="M24.8194 52.771C24.5824 52.6292 24.2752 52.7064 24.1334 52.9434C23.9915 53.1804 24.0687 53.4876 24.3057 53.6294C26.1356 54.8125 27.2371 56.8459 27.2286 59.0249C27.1868 61.2296 26.2946 63.3328 24.7383 64.8951C23.1538 66.469 21.186 67.6022 19.0293 68.1827C18.0767 68.4595 17.0752 68.6577 16.1075 68.8497L15.2999 69.0118C11.7407 69.7416 8.24831 70.7661 4.85892 72.0748C4.72757 72.1256 4.59476 72.1832 4.46292 72.2467C4.02737 72.4596 3.51639 72.4519 3.0874 72.2261C2.71752 72.0355 2.46449 71.6758 2.41015 71.2632C2.14547 69.2828 2.21977 67.2719 2.62988 65.3164C3.28 62.3683 4.43823 59.5559 6.05273 57.0049C6.80957 55.7652 6.83886 54.7286 6.13378 54.1617C5.80227 53.9292 5.41049 53.7977 5.00585 53.7832L1.77002 53.4131C1.67983 53.4053 1.59037 53.3906 1.50244 53.3691C1.49951 53.3603 1.47607 53.2749 1.58593 52.9873C2.66772 49.7358 4.93388 47.0106 7.93359 45.354C11.0727 43.8183 15.0049 44.3657 17.0776 46.6289C17.2643 46.832 17.5803 46.8456 17.7837 46.6592C17.9871 46.4727 18.0011 46.1568 17.8149 45.9531C15.4155 43.334 11.0756 42.7036 7.4941 44.4556C4.26588 46.2227 1.82252 49.1419 0.651398 52.6309C0.427633 53.0718 0.460338 53.5994 0.736848 54.0093C0.981139 54.2543 1.31002 54.3964 1.65585 54.4063L4.89218 54.7764C5.10712 54.7811 5.3178 54.8373 5.50643 54.9405C5.82043 55.1929 5.5538 55.9034 5.1993 56.4835C3.52403 59.134 2.32284 62.0559 1.6495 65.1183C1.21731 67.1846 1.13969 69.3095 1.41996 71.4019C1.51989 72.1299 1.96474 72.7651 2.61478 73.1079C2.97643 73.3003 3.37994 73.4006 3.78959 73.3999C4.1728 73.4001 4.55112 73.3139 4.89652 73.1479C5.00394 73.0962 5.11136 73.0495 5.21879 73.0078C8.55639 71.7192 11.9953 70.7102 15.5 69.9912L16.3018 69.8306C17.291 69.6348 18.314 69.4316 19.3086 69.1426C21.6335 68.5133 23.7538 67.2878 25.4595 65.5874C27.1958 63.8367 28.188 61.4825 28.2285 59.0171C28.2307 56.4902 26.9459 54.1361 24.8194 52.771Z" fill="black"/>
</svg>
