<svg width="76" height="76" viewBox="0 0 76 76" fill="none" xmlns="http://www.w3.org/2000/svg">
<path d="M8.13177 26.5489C8.17451 26.5605 8.21861 26.5663 8.26289 26.5662C8.49217 26.566 8.69269 26.4117 8.75174 26.1902L14.7689 3.64547C15.2784 1.756 17.2186 0.633161 19.1107 1.13288L37.7391 6.10504C39.6315 6.61035 40.7561 8.55387 40.2512 10.4463L38.9523 15.3136C38.9177 15.4434 38.936 15.5816 39.0033 15.6979C39.0705 15.8142 39.1813 15.899 39.3111 15.9336C39.5307 15.992 39.7619 15.8934 39.872 15.6945C41.8203 14.1932 44.5124 14.1122 46.5475 15.4937C48.5826 16.8753 49.5008 19.4072 48.8245 21.7721C48.1482 24.137 46.03 25.8006 43.5722 25.8972C41.1601 25.9886 38.951 24.5535 38.0541 22.3125C38.0102 22.1389 37.8765 22.0022 37.704 21.9542C37.434 21.8845 37.1581 22.0442 37.084 22.3129L34.234 32.991C34.1993 33.1208 34.2176 33.259 34.2849 33.3753C34.3522 33.4916 34.4629 33.5764 34.5927 33.611C34.6355 33.6226 34.6796 33.6284 34.7238 33.6283C34.9531 33.6281 35.1536 33.4738 35.2127 33.2523L37.7246 23.8411C38.9574 25.7519 41.0736 26.9087 43.3476 26.915C43.4356 26.915 43.5237 26.913 43.6118 26.9095C46.3662 26.8132 48.7818 25.0427 49.7028 22.445C50.6239 19.8473 49.8632 16.9506 47.7846 15.1407C45.706 13.3308 42.7322 12.9756 40.2858 14.2452L41.2298 10.7076C41.5418 9.53923 41.3769 8.29476 40.7712 7.24804C40.1655 6.20132 39.1688 5.43812 38.0004 5.12637L19.372 0.154184C16.9391 -0.492191 14.4421 0.952754 13.7902 3.38418L7.77303 25.9289C7.73834 26.0587 7.75665 26.1969 7.82394 26.3132C7.89122 26.4295 8.00196 26.5143 8.13177 26.5489Z" fill="black"/>
<path d="M72.2024 13.8654L49.5815 8.14072C49.4058 8.09593 49.2196 8.1484 49.0931 8.27833C48.9666 8.40825 48.9192 8.59583 48.9688 8.77024C49.0183 8.94464 49.1572 9.0793 49.3331 9.12337L71.954 14.8481C72.8658 15.079 73.6486 15.6626 74.1301 16.4706C74.6116 17.2786 74.7524 18.2448 74.5214 19.1567L69.7912 37.8479C69.3101 39.7466 67.3814 40.8961 65.4825 40.4159L60.599 39.1799C60.3277 39.1118 60.0525 39.276 59.9835 39.5471C59.9299 39.7677 60.0315 39.9968 60.231 40.1051C61.7485 42.0271 61.8671 44.7042 60.5254 46.7528C59.1836 48.8015 56.6823 49.7627 54.314 49.1397C51.9456 48.5167 50.2409 46.4492 50.0809 44.0055C49.9208 41.5619 51.3413 39.2896 53.6081 38.363C53.6252 38.3531 53.6417 38.3422 53.6574 38.3302C53.7957 38.2756 53.9011 38.1603 53.9431 38.0177C54.0113 37.7464 53.8471 37.471 53.5759 37.4022L42.8617 34.6907C42.6858 34.6454 42.4992 34.6977 42.3724 34.8277C42.2457 34.9577 42.1982 35.1457 42.2479 35.3203C42.2977 35.495 42.4371 35.6296 42.6133 35.6734L52.0559 38.063C49.5942 39.6976 48.4933 42.7514 49.3458 45.5807C50.1983 48.41 52.803 50.3473 55.758 50.3499C55.8777 50.3499 55.9979 50.3464 56.1182 50.3405C58.4093 50.2289 60.4834 48.9508 61.6129 46.9543C62.7425 44.9579 62.7698 42.5218 61.6854 40.5004L65.2342 41.3986C66.4068 41.6955 67.6492 41.5144 68.6882 40.8951C69.7271 40.2757 70.4774 39.269 70.7739 38.0963L75.5041 19.4051C76.119 16.964 74.642 14.4859 72.2024 13.8654Z" fill="black"/>
<path d="M67.944 48.8523C67.8138 48.8186 67.6755 48.8382 67.5599 48.9069C67.4442 48.9755 67.3607 49.0875 67.328 49.218L61.5696 71.8304C61.3376 72.742 60.7529 73.5241 59.9442 74.0046C59.1355 74.485 58.1691 74.6246 57.2575 74.3925L38.5732 69.6346C36.6763 69.1491 35.5303 67.22 36.0112 65.3219L37.2541 60.4403C37.2874 60.3102 37.2675 60.1721 37.199 60.0565C37.1304 59.941 37.0187 59.8574 36.8884 59.8243C36.6678 59.7681 36.4373 59.8695 36.3296 60.0701C34.6579 61.3914 32.3884 61.6687 30.4478 60.7887C28.5072 59.9087 27.2204 58.0188 27.1128 55.8907C26.972 53.1197 28.8475 50.65 31.5547 50.0419C34.2618 49.4337 37.0135 50.8639 38.0713 53.429C38.1273 53.6485 38.3253 53.802 38.5519 53.8012C38.7833 53.801 38.9851 53.644 39.0423 53.4197L41.7695 42.71C41.8387 42.4389 41.675 42.1631 41.4039 42.094C41.1328 42.0248 40.857 42.1885 40.7879 42.4596L38.3839 51.8998C36.9488 49.7354 34.3929 48.5945 31.8235 48.9713C29.2541 49.3481 27.1334 51.1748 26.3802 53.6601C25.627 56.1453 26.3768 58.842 28.3048 60.5818C29.5336 61.6984 31.1352 62.3158 32.7955 62.3131C32.9113 62.3131 33.0276 62.3102 33.1444 62.3042C34.1198 62.2517 35.0718 61.9853 35.9328 61.524L35.0295 65.0716C34.7308 66.2436 34.91 67.4863 35.5277 68.5261C36.1453 69.566 37.1508 70.3178 38.3228 70.6163L57.0072 75.3742C57.3774 75.4688 57.7581 75.5168 58.1402 75.5172C60.222 75.5111 62.0361 74.0979 62.5513 72.0809L68.3097 49.4683C68.343 49.3381 68.3231 49.2001 68.2545 49.0845C68.186 48.969 68.0742 48.8854 67.944 48.8523Z" fill="black"/>
<path d="M26.2235 66.8383L3.65853 60.8958C2.74887 60.6563 1.97162 60.0653 1.49782 59.2527C1.02401 58.4401 0.892462 57.4725 1.13212 56.5629L6.04194 37.9182C6.54275 36.0255 8.48091 34.8952 10.3748 35.3913L15.2461 36.6743C15.4904 36.7414 15.7464 36.6157 15.8427 36.3813C15.939 36.1469 15.8453 35.8775 15.6243 35.7535C14.3161 34.0711 14.057 31.799 14.9527 29.8653C15.8484 27.9315 17.7491 26.6599 19.8783 26.5697C22.6521 26.4514 25.1075 28.3494 25.6919 31.0635C26.2763 33.7777 24.8196 36.5179 22.2429 37.5517C22.0721 37.597 21.9381 37.7295 21.8911 37.8999C21.8568 38.0298 21.8756 38.1681 21.9432 38.2841C22.0109 38.4002 22.1219 38.4847 22.2519 38.5189L32.9394 41.3333C33.2094 41.4034 33.4854 41.2419 33.5565 40.9721C33.6276 40.7023 33.4672 40.4257 33.1976 40.3536L23.7782 37.8731C26.8276 35.9013 27.7592 31.8638 25.882 28.7553C24.0047 25.6467 19.9977 24.5916 16.833 26.3725C13.6683 28.1534 12.4906 32.1261 14.1735 35.344L10.6331 34.4116C8.19785 33.7708 5.70406 35.2249 5.06226 37.6599L0.152433 56.3046C-0.155681 57.4741 0.0134087 58.718 0.622501 59.7627C1.23159 60.8075 2.23079 61.5675 3.40025 61.8755L25.9652 67.8179C26.1405 67.8649 26.3275 67.8144 26.4554 67.6858C26.5833 67.5571 26.6327 67.3699 26.5848 67.1949C26.5369 67.0199 26.3991 66.8839 26.2235 66.8383Z" fill="black"/>
</svg>
