<svg width="76" height="69" viewBox="0 0 76 69" fill="none" xmlns="http://www.w3.org/2000/svg">
<path d="M43.3447 8.92188H32.0625C31.7864 8.92188 31.5625 9.14573 31.5625 9.42188C31.5625 9.69802 31.7864 9.92188 32.0625 9.92188H43.3447C43.6209 9.92188 43.8447 9.69802 43.8447 9.42188C43.8447 9.14573 43.6209 8.92188 43.3447 8.92188Z" fill="black"/>
<path fill-rule="evenodd" clip-rule="evenodd" d="M61.9561 49.897H71.0151C73.4993 49.8997 75.5124 51.9128 75.5151 54.397V64.5059C75.5124 66.99 73.4993 69.0031 71.0151 69.0059H50.5C48.0158 69.0032 46.0027 66.99 46 64.5059V54.397C46.0027 51.9128 48.0158 49.8997 50.5 49.897H60.9561V43.6338C60.9537 41.7018 59.3881 40.1361 57.4561 40.1338H18.7573C16.8253 40.1361 15.2597 41.7018 15.2573 43.6338V49.897H25.0151C27.4993 49.8997 29.5124 51.9128 29.5151 54.397V64.5059C29.5124 66.99 27.4993 69.0031 25.0151 69.0059H4.5C2.01584 69.0032 0.00271157 66.99 0 64.5059V54.397C0.00271157 51.9128 2.01584 49.8997 4.5 49.897H14.2573V43.6338C14.26 41.1496 16.2732 39.1365 18.7573 39.1338H37.204V28.7544H27.4981C25.0139 28.7517 23.0008 26.7386 22.9981 24.2544V4.5C23.0008 2.01584 25.0139 0.00270607 27.4981 0H47.2524C49.7366 0.00270607 51.7497 2.01584 51.7524 4.5V24.2544C51.7497 26.7386 49.7366 28.7517 47.2524 28.7544H38.2041V39.1338H57.4561C59.9402 39.1365 61.9533 41.1496 61.9561 43.6338V49.897ZM28.5151 54.397C28.5128 52.465 26.9472 50.8993 25.0151 50.897H4.5C2.56797 50.8993 1.00234 52.465 1 54.397V64.5059C1.00234 66.4379 2.56797 68.0035 4.5 68.0059H25.0151C26.9472 68.0035 28.5128 66.4379 28.5151 64.5059V54.397ZM27.4981 27.7544C25.566 27.7521 24.0004 26.1864 23.9981 24.2544V4.5C24.0004 2.56797 25.566 1.00234 27.4981 1H47.2524C49.1845 1.00234 50.7501 2.56797 50.7524 4.5V24.2544C50.7501 26.1864 49.1845 27.7521 47.2524 27.7544L27.4981 27.7544ZM71.0151 68.0059C72.9472 68.0035 74.5128 66.4379 74.5151 64.5059V54.397C74.5128 52.465 72.9472 50.8993 71.0151 50.897H50.5C48.568 50.8993 47.0023 52.465 47 54.397V64.5059C47.0023 66.4379 48.568 68.0035 50.5 68.0059H71.0151Z" fill="black"/>
<path d="M43.3447 17.9219H32.0625C31.7864 17.9219 31.5625 18.1457 31.5625 18.4219C31.5625 18.698 31.7864 18.9219 32.0625 18.9219H43.3447C43.6209 18.9219 43.8447 18.698 43.8447 18.4219C43.8447 18.1457 43.6209 17.9219 43.3447 17.9219Z" fill="black"/>
<path d="M66.3994 58.9531H55.1172C54.841 58.9531 54.6172 59.177 54.6172 59.4531C54.6172 59.7293 54.841 59.9531 55.1172 59.9531H66.3994C66.6756 59.9531 66.8994 59.7293 66.8994 59.4531C66.8994 59.177 66.6756 58.9531 66.3994 58.9531Z" fill="black"/>
<path d="M9.11523 59.9531H20.3975C20.6736 59.9531 20.8975 59.7293 20.8975 59.4531C20.8975 59.177 20.6736 58.9531 20.3975 58.9531H9.11523C8.83909 58.9531 8.61523 59.177 8.61523 59.4531C8.61523 59.7293 8.83909 59.9531 9.11523 59.9531Z" fill="black"/>
</svg>
